# xmcd
# Track frame offsets:
# 150
# 16385
# 29890
# 42352
# 57252
# 70460
# 83832
# 96767
# 112095
# 123510
# 136995
# 152020
# 165835
# 177915
# 188835
# 202500
# 215170
# 228210
# 240402
# 250567
# 262982
# 277420
# 288735
# 302240
#
# Disc length: 4212 seconds
# Revision: 0
# Processed by: cddbd v1.5.2PL0 Copyright (c) Steve Scherf et al.
# Submitted via: VisiTrax 2.11.1.266 - For more info visit www.synapsa.com
#
DISCID=5a107218
DTITLE=Slim Dusty - Regal Zonophone Collection Disc 2
DYEAR=1995
DGENRE=Australian Country
TTITLE0=When The Sun Goes Down Outback
TTITLE1=When The Harvest Days Are Over, Jessie Dear
TTITLE2=Rusty, It's Goodbye
TTITLE3=Losin' My Blues Tonight
TTITLE4=Rose Of Remembrance
TTITLE5=The Rain Still Tumbles Down
TTITLE6=When I First Saw The Lovelight In Your Eyes
TTITLE7=I Must Have Good Terbaccy When I Smoke
TTITLE8=Baby Of My Dreams
TTITLE9=Goldy Girl
TTITLE10=The Sunlander
TTITLE11=The Showman's Song
TTITLE12=The Bushland Boogie
TTITLE13=Any Old Time
TTITLE14=Lover's Lament
TTITLE15=Frankie And Johnny
TTITLE16=If I Only Had A Home Sweet Home
TTITLE17=The Broken Home
TTITLE18=Take My Worries Away
TTITLE19=The Swagman's Story
TTITLE20=Mother
TTITLE21=Our Wedding Waltz
TTITLE22=A Little Girl Dressed In Blue
TTITLE23=Old Love Letters
EXTD=
EXTT0=
EXTT1=
EXTT2=
EXTT3=
EXTT4=
EXTT5=
EXTT6=
EXTT7=
EXTT8=
EXTT9=
EXTT10=
EXTT11=
EXTT12=
EXTT13=
EXTT14=
EXTT15=
EXTT16=
EXTT17=
EXTT18=
EXTT19=
EXTT20=
EXTT21=
EXTT22=
EXTT23=
PLAYORDER=
